<svg width="20" height="17" viewBox="0 0 20 17" fill="none" xmlns="http://www.w3.org/2000/svg">
<path d="M16.9308 2.13624C15.6561 1.55133 14.2892 1.12041 12.8599 0.873594C12.8339 0.868831 12.8079 0.880735 12.7945 0.904543C12.6187 1.21722 12.4239 1.62514 12.2876 1.94576C10.7503 1.71562 9.22099 1.71562 7.71527 1.94576C7.57887 1.61801 7.37707 1.21722 7.20048 0.904543C7.18707 0.881529 7.16107 0.869625 7.13504 0.873594C5.70659 1.11962 4.33963 1.55055 3.06411 2.13624C3.05307 2.141 3.04361 2.14894 3.03732 2.15925C0.444493 6.03288 -0.265792 9.81131 0.0826501 13.5429C0.0842267 13.5611 0.0944749 13.5786 0.108665 13.5897C1.81934 14.846 3.47642 15.6087 5.10273 16.1142C5.12876 16.1221 5.15634 16.1126 5.1729 16.0912C5.55761 15.5658 5.90054 15.0119 6.19456 14.4293C6.21192 14.3952 6.19535 14.3547 6.15989 14.3413C5.61594 14.1349 5.098 13.8833 4.59977 13.5976C4.56037 13.5746 4.55721 13.5183 4.59347 13.4913C4.69831 13.4127 4.80318 13.331 4.9033 13.2484C4.92141 13.2334 4.94665 13.2302 4.96794 13.2397C8.24107 14.7341 11.7846 14.7341 15.0191 13.2397C15.0404 13.2294 15.0657 13.2326 15.0846 13.2476C15.1847 13.3302 15.2895 13.4127 15.3952 13.4913C15.4314 13.5183 15.4291 13.5746 15.3897 13.5976C14.8914 13.8889 14.3735 14.1349 13.8288 14.3405C13.7933 14.354 13.7775 14.3952 13.7949 14.4293C14.0952 15.0111 14.4381 15.565 14.8157 16.0904C14.8315 16.1126 14.8599 16.1221 14.8859 16.1142C16.5201 15.6087 18.1772 14.846 19.8879 13.5897C19.9028 13.5786 19.9123 13.5619 19.9139 13.5437C20.3309 9.22956 19.2154 5.48212 16.9568 2.16004C16.9513 2.14894 16.9419 2.141 16.9308 2.13624ZM6.68335 11.2707C5.69792 11.2707 4.88594 10.366 4.88594 9.25497C4.88594 8.1439 5.68217 7.23919 6.68335 7.23919C7.69239 7.23919 8.49651 8.15184 8.48073 9.25497C8.48073 10.366 7.68451 11.2707 6.68335 11.2707ZM13.329 11.2707C12.3435 11.2707 11.5316 10.366 11.5316 9.25497C11.5316 8.1439 12.3278 7.23919 13.329 7.23919C14.338 7.23919 15.1421 8.15184 15.1264 9.25497C15.1264 10.366 14.338 11.2707 13.329 11.2707Z" fill="#CBD6DE"/>
<path d="M16.9308 2.13624C15.6561 1.55133 14.2892 1.12041 12.8599 0.873594C12.8339 0.868831 12.8079 0.880735 12.7945 0.904543C12.6187 1.21722 12.4239 1.62514 12.2876 1.94576C10.7503 1.71562 9.22099 1.71562 7.71527 1.94576C7.57887 1.61801 7.37707 1.21722 7.20048 0.904543C7.18707 0.881529 7.16107 0.869625 7.13504 0.873594C5.70659 1.11962 4.33963 1.55055 3.06411 2.13624C3.05307 2.141 3.04361 2.14894 3.03732 2.15925C0.444493 6.03288 -0.265792 9.81131 0.0826501 13.5429C0.0842267 13.5611 0.0944749 13.5786 0.108665 13.5897C1.81934 14.846 3.47642 15.6087 5.10273 16.1142C5.12876 16.1221 5.15634 16.1126 5.1729 16.0912C5.55761 15.5658 5.90054 15.0119 6.19456 14.4293C6.21192 14.3952 6.19535 14.3547 6.15989 14.3413C5.61594 14.1349 5.098 13.8833 4.59977 13.5976C4.56037 13.5746 4.55721 13.5183 4.59347 13.4913C4.69831 13.4127 4.80318 13.331 4.9033 13.2484C4.92141 13.2334 4.94665 13.2302 4.96794 13.2397C8.24107 14.7341 11.7846 14.7341 15.0191 13.2397C15.0404 13.2294 15.0657 13.2326 15.0846 13.2476C15.1847 13.3302 15.2895 13.4127 15.3952 13.4913C15.4314 13.5183 15.4291 13.5746 15.3897 13.5976C14.8914 13.8889 14.3735 14.1349 13.8288 14.3405C13.7933 14.354 13.7775 14.3952 13.7949 14.4293C14.0952 15.0111 14.4381 15.565 14.8157 16.0904C14.8315 16.1126 14.8599 16.1221 14.8859 16.1142C16.5201 15.6087 18.1772 14.846 19.8879 13.5897C19.9028 13.5786 19.9123 13.5619 19.9139 13.5437C20.3309 9.22956 19.2154 5.48212 16.9568 2.16004C16.9513 2.14894 16.9419 2.141 16.9308 2.13624ZM6.68335 11.2707C5.69792 11.2707 4.88594 10.366 4.88594 9.25497C4.88594 8.1439 5.68217 7.23919 6.68335 7.23919C7.69239 7.23919 8.49651 8.15184 8.48073 9.25497C8.48073 10.366 7.68451 11.2707 6.68335 11.2707ZM13.329 11.2707C12.3435 11.2707 11.5316 10.366 11.5316 9.25497C11.5316 8.1439 12.3278 7.23919 13.329 7.23919C14.338 7.23919 15.1421 8.15184 15.1264 9.25497C15.1264 10.366 14.338 11.2707 13.329 11.2707Z" fill="#CBD6DE"/>
</svg>
