<svg xmlns="http://www.w3.org/2000/svg" viewBox="0 0 78 24">
  <g fill="currentColor" fill-rule="evenodd">
    <path d="M35.2 15h2.1026a2.9999 2.9999 0 012.5634 1.499L44.1998 24h7l-4.5351-7.8946a3 3 0 00-2.0794-1.4599C47.6099 13.679 49.8 10.8452 49.8 7.5c0-4.1421-3.3579-7.5-7.5-7.5H29.2v24h6v-9zm5.6-10.6002h-5.6v6h5.6c1.6569 0 3-1.3431 3-3 0-1.6568-1.3431-3-3-3z"/>
    <path fill-rule="nonzero" d="M24 12c0 6.6274-5.3726 12-12 12S0 18.6274 0 12 5.3726 0 12 0h12v3c0 1.6569-1.3431 3-3 3h-8.9996c-3.3134.0002-6 2.6864-6 6s2.6864 5.9999 6 5.9999c2.2208 0 4.1622-1.2065 5.1996-2.9999H12c-1.6569 0-3-1.3431-3-3s1.3431-3 3-3h12v3z"/>
    <path d="M65.6 24c6.6274 0 12-5.3726 12-12 0-1.652-.3338-3.226-.9377-4.6583C76.3018 6.4865 75.4231 6 74.495 6H75c1.4359 0 2.6-1.164 2.6-2.6V0h-12c-6.6274 0-12 5.3726-12 12s5.3726 12 12 12zm0-18c-3.3137 0-6 2.6863-6 6s2.6863 6 6 6 6-2.6863 6-6-2.6863-6-6-6z"/>
  </g>
</svg>