<svg width="16" height="17" viewBox="0 0 16 17" fill="none" xmlns="http://www.w3.org/2000/svg">
<path fill-rule="evenodd" clip-rule="evenodd" d="M8.00018 1.59259C4.18533 1.59259 1.09277 4.68514 1.09277 8.5C1.09277 12.3149 4.18533 15.4074 8.00018 15.4074C11.815 15.4074 14.9076 12.3149 14.9076 8.5C14.9076 4.68514 11.815 1.59259 8.00018 1.59259ZM0.0927734 8.5C0.0927734 4.13286 3.63304 0.59259 8.00018 0.59259C12.3673 0.59259 15.9076 4.13286 15.9076 8.5C15.9076 12.8671 12.3673 16.4074 8.00018 16.4074C3.63304 16.4074 0.0927734 12.8671 0.0927734 8.5Z" fill="#CBD6DE"/>
<path fill-rule="evenodd" clip-rule="evenodd" d="M8.00018 1.59259C4.18533 1.59259 1.09277 4.68514 1.09277 8.5C1.09277 12.3149 4.18533 15.4074 8.00018 15.4074C11.815 15.4074 14.9076 12.3149 14.9076 8.5C14.9076 4.68514 11.815 1.59259 8.00018 1.59259ZM0.0927734 8.5C0.0927734 4.13286 3.63304 0.59259 8.00018 0.59259C12.3673 0.59259 15.9076 4.13286 15.9076 8.5C15.9076 12.8671 12.3673 16.4074 8.00018 16.4074C3.63304 16.4074 0.0927734 12.8671 0.0927734 8.5Z" fill="#CBD6DE"/>
<path fill-rule="evenodd" clip-rule="evenodd" d="M8.00021 7.5C8.55249 7.5 9.00021 7.94771 9.00021 8.5V11.463C9.00021 12.0152 8.55249 12.463 8.00021 12.463C7.44792 12.463 7.00021 12.0152 7.00021 11.463V8.5C7.00021 7.94771 7.44792 7.5 8.00021 7.5Z" fill="#01101C"/>
<path fill-rule="evenodd" clip-rule="evenodd" d="M8.00021 7.5C8.55249 7.5 9.00021 7.94771 9.00021 8.5V11.463C9.00021 12.0152 8.55249 12.463 8.00021 12.463C7.44792 12.463 7.00021 12.0152 7.00021 11.463V8.5C7.00021 7.94771 7.44792 7.5 8.00021 7.5Z" fill="white"/>
<path fill-rule="evenodd" clip-rule="evenodd" d="M7.00021 5.53703C7.00021 4.98475 7.44792 4.53703 8.00021 4.53703H8.00854C8.56082 4.53703 9.00854 4.98475 9.00854 5.53703C9.00854 6.08932 8.56082 6.53703 8.00854 6.53703H8.00021C7.44792 6.53703 7.00021 6.08932 7.00021 5.53703Z" fill="#01101C"/>
<path fill-rule="evenodd" clip-rule="evenodd" d="M7.00021 5.53703C7.00021 4.98475 7.44792 4.53703 8.00021 4.53703H8.00854C8.56082 4.53703 9.00854 4.98475 9.00854 5.53703C9.00854 6.08932 8.56082 6.53703 8.00854 6.53703H8.00021C7.44792 6.53703 7.00021 6.08932 7.00021 5.53703Z" fill="white"/>
</svg>
