<svg width="20" height="17" viewBox="0 0 20 17" fill="none" xmlns="http://www.w3.org/2000/svg">
<path fill-rule="evenodd" clip-rule="evenodd" d="M7.72 11.0832L16.2655 3.33893C16.6331 2.97015 16.1736 2.87796 15.7142 3.15454L5.23903 9.79248L0.736538 8.40958C-0.274225 8.133 -0.274225 7.39545 0.920312 6.93448L18.6546 0.112153C19.4816 -0.256621 20.2167 0.296541 19.941 1.58725L16.9087 15.8773C16.725 16.8914 16.0818 17.168 15.2548 16.707L10.6604 13.2958L8.4551 15.4163C8.17943 15.6929 7.81188 15.6929 7.81188 15.4163L7.72 11.0832Z" fill="#CBD6DE"/>
<path fill-rule="evenodd" clip-rule="evenodd" d="M7.72 11.0832L16.2655 3.33893C16.6331 2.97015 16.1736 2.87796 15.7142 3.15454L5.23903 9.79248L0.736538 8.40958C-0.274225 8.133 -0.274225 7.39545 0.920312 6.93448L18.6546 0.112153C19.4816 -0.256621 20.2167 0.296541 19.941 1.58725L16.9087 15.8773C16.725 16.8914 16.0818 17.168 15.2548 16.707L10.6604 13.2958L8.4551 15.4163C8.17943 15.6929 7.81188 15.6929 7.81188 15.4163L7.72 11.0832Z" fill="#CBD6DE"/>
</svg>
